With: James Russo, Zulay Henao and Bill Sage

Een klein jongetje uit Brooklyn is getuige van de brute moord op zijn moeder en groeit op met de obsessie om de moordenaar te vinden. Hij begint zijn leven als een stille, slimme student overdag en een zelfverzekerde held in de nacht. Maar wat is een echte held? En wie beslist wat goed en fout is? Als de grenzen vervagen begint Sean's dubbelleven in te werken op zijn gevoelens en zijn wereld staat op het punt om in te storten.

A young Brooklyn boy witnesses the brutal murder of his mother and grows up obsessed with finding her killer...

------------------------ Dutch Friends ------------------------
---------------------------------------------------------------
- Bezoek ook eens mijn vrienden op:  http://www.Film-Test.nl --
----- voor mijn Nederlandse Sync. ondertitels ---- en meer ----
------- http://www.Film-Test.nl ---- voor Films en meer -------
---------------------------------------------------------------

General:

Complete name                    : Boy WonderBoy Wonder.avi
Format                           : AVI
Format/Info                      : Audio Video Interleave
File size                        : 1.05 GiB
Duration                         : 1h 32mn
Overall bit rate                 : 1 620 Kbps

Video:

Format                           : MPEG-4 Visual
Format profile                   : Simple@L3
Format settings, BVOP            : No
Format settings, QPel            : No
Format settings, GMC             : No warppoints
Format settings, Matrix          : Default (H.263)
Codec ID                         : XVID
Codec ID/Hint                    : XviD
Duration                         : 1h 32mn
Bit rate                         : 1 161 Kbps
Width                            : 720 pixels
Height                           : 304 pixels
Display aspect ratio             : 2.35:1
Frame rate                       : 25.000 fps
Color space                      : YUV
Chroma subsampling               : 4:2:0
Bit depth                        : 8 bits
Scan type                        : Progressive
Compression mode                 : Lossy
Bits/(Pixel*Frame)               : 0.212
Stream size                      : 767 MiB (72%)
Writing library                  : XviD 1.1.2 (UTC 2006-11-01)

Audio:

Format                           : AC-3
Format/Info                      : Audio Coding 3
Mode extension                   : CM (complete main)
Codec ID                         : 2000
Duration                         : 1h 32mn
Bit rate mode                    : Constant
Bit rate                         : 448 Kbps
Channel(s)                       : 6 channels
Channel positions                : Front: L C R, Side: L R, LFE
Sampling rate                    : 48.0 KHz
Bit depth                        : 16 bits
Compression mode                 : Lossy
Stream size                      : 296 MiB (28%)
Alignment                        : Aligned on interleaves
Interleave, duration             : 32 ms (0.80 video frame)
Interleave, preload duration     : 32 ms

